<svg width="174" height="61" viewBox="0 0 174 61" fill="none" xmlns="http://www.w3.org/2000/svg">
<g filter="url(#filter0_ddd_43_1249)">
<rect x="8.00015" y="7.06396" width="157.331" height="44.9362" rx="7.78117" fill="#B17700"/>
</g>
<g clip-path="url(#clip0_43_1249)">
<g filter="url(#filter1_ddd_43_1249)">
<rect x="8" y="4" width="157.331" height="44.9362" fill="#C77126"/>
<rect x="8" y="4" width="157.331" height="44.9362" fill="url(#paint0_linear_43_1249)" style="mix-blend-mode:overlay"/>
</g>
<rect opacity="0.5" x="8.00009" y="26.7676" width="157.331" height="22.1685" fill="#C77126"/>
<g style="mix-blend-mode:overlay" opacity="0.7">
<ellipse cx="86.6651" cy="45.0414" rx="73.6084" ry="18.2741" transform="rotate(-180 86.6651 45.0414)" fill="url(#paint1_radial_43_1249)"/>
</g>
<g style="mix-blend-mode:overlay" opacity="0.7">
<ellipse cx="86.7084" cy="7.06394" rx="73.2487" ry="7.14894" transform="rotate(-180 86.7084 7.06394)" fill="url(#paint2_radial_43_1249)"/>
</g>
<g style="mix-blend-mode:overlay">
<rect x="17.0994" y="4" width="138.308" height="1.02128" fill="url(#paint3_linear_43_1249)"/>
</g>
<g style="mix-blend-mode:overlay" opacity="0.5">
<rect x="17.0994" y="47.915" width="138.308" height="1.02128" fill="url(#paint4_linear_43_1249)"/>
</g>
<g filter="url(#filter2_dddd_43_1249)">
<path d="M48.1051 32.112C46.7931 32.112 45.7158 31.8027 44.8731 31.184C44.0305 30.5547 43.5771 29.6587 43.5131 28.496H46.8571C46.8891 28.8907 47.0065 29.1787 47.2091 29.36C47.4118 29.5413 47.6731 29.632 47.9931 29.632C48.2811 29.632 48.5158 29.5627 48.6971 29.424C48.8891 29.2747 48.9851 29.072 48.9851 28.816C48.9851 28.4853 48.8305 28.2293 48.5211 28.048C48.2118 27.8667 47.7105 27.664 47.0171 27.44C46.2811 27.1947 45.6838 26.96 45.2251 26.736C44.7771 26.5013 44.3825 26.1653 44.0411 25.728C43.7105 25.28 43.5451 24.6987 43.5451 23.984C43.5451 23.2587 43.7265 22.64 44.0891 22.128C44.4518 21.6053 44.9531 21.2107 45.5931 20.944C46.2331 20.6773 46.9585 20.544 47.7691 20.544C49.0811 20.544 50.1265 20.8533 50.9051 21.472C51.6945 22.08 52.1158 22.9387 52.1691 24.048H48.7611C48.7505 23.7067 48.6438 23.4507 48.4411 23.28C48.2491 23.1093 47.9985 23.024 47.6891 23.024C47.4545 23.024 47.2625 23.0933 47.1131 23.232C46.9638 23.3707 46.8891 23.568 46.8891 23.824C46.8891 24.0373 46.9691 24.224 47.1291 24.384C47.2998 24.5333 47.5078 24.6667 47.7531 24.784C47.9985 24.8907 48.3611 25.0293 48.8411 25.2C49.5558 25.4453 50.1425 25.6907 50.6011 25.936C51.0705 26.1707 51.4705 26.5067 51.8011 26.944C52.1425 27.3707 52.3131 27.9147 52.3131 28.576C52.3131 29.248 52.1425 29.8507 51.8011 30.384C51.4705 30.9173 50.9851 31.3387 50.3451 31.648C49.7158 31.9573 48.9691 32.112 48.1051 32.112ZM56.843 20.72V27.264C56.843 27.872 56.9817 28.3413 57.259 28.672C57.547 29.0027 57.979 29.168 58.555 29.168C59.131 29.168 59.563 29.0027 59.851 28.672C60.1497 28.3307 60.299 27.8613 60.299 27.264V20.72H63.435V27.264C63.435 28.2987 63.2163 29.184 62.779 29.92C62.3417 30.6453 61.7443 31.1947 60.987 31.568C60.2403 31.9307 59.4083 32.112 58.491 32.112C57.5737 32.112 56.7523 31.9307 56.027 31.568C55.3123 31.1947 54.747 30.6453 54.331 29.92C53.9257 29.1947 53.723 28.3093 53.723 27.264V20.72H56.843ZM72.3616 26.208C73.023 26.3573 73.5456 26.688 73.9296 27.2C74.3243 27.7013 74.5216 28.2773 74.5216 28.928C74.5216 29.888 74.191 30.64 73.5296 31.184C72.8683 31.728 71.9403 32 70.7456 32H65.1616V20.72H70.5696C71.7216 20.72 72.623 20.976 73.2736 21.488C73.935 22 74.2656 22.72 74.2656 23.648C74.2656 24.3093 74.0896 24.864 73.7376 25.312C73.3963 25.7493 72.9376 26.048 72.3616 26.208ZM68.2976 25.2H69.8816C70.671 25.2 71.0656 24.8747 71.0656 24.224C71.0656 23.552 70.671 23.216 69.8816 23.216H68.2976V25.2ZM70.1216 29.472C70.911 29.472 71.3056 29.1413 71.3056 28.48C71.3056 28.1387 71.199 27.8773 70.9856 27.696C70.783 27.5147 70.4896 27.424 70.1056 27.424H68.2976V29.472H70.1216ZM80.152 32.112C78.84 32.112 77.7627 31.8027 76.92 31.184C76.0773 30.5547 75.624 29.6587 75.56 28.496H78.904C78.936 28.8907 79.0533 29.1787 79.256 29.36C79.4587 29.5413 79.72 29.632 80.04 29.632C80.328 29.632 80.5627 29.5627 80.744 29.424C80.936 29.2747 81.032 29.072 81.032 28.816C81.032 28.4853 80.8773 28.2293 80.568 28.048C80.2587 27.8667 79.7573 27.664 79.064 27.44C78.328 27.1947 77.7307 26.96 77.272 26.736C76.824 26.5013 76.4293 26.1653 76.088 25.728C75.7573 25.28 75.592 24.6987 75.592 23.984C75.592 23.2587 75.7733 22.64 76.136 22.128C76.4987 21.6053 77 21.2107 77.64 20.944C78.28 20.6773 79.0053 20.544 79.816 20.544C81.128 20.544 82.1733 20.8533 82.952 21.472C83.7413 22.08 84.1627 22.9387 84.216 24.048H80.808C80.7973 23.7067 80.6907 23.4507 80.488 23.28C80.296 23.1093 80.0453 23.024 79.736 23.024C79.5013 23.024 79.3093 23.0933 79.16 23.232C79.0107 23.3707 78.936 23.568 78.936 23.824C78.936 24.0373 79.016 24.224 79.176 24.384C79.3467 24.5333 79.5547 24.6667 79.8 24.784C80.0453 24.8907 80.408 25.0293 80.888 25.2C81.6027 25.4453 82.1893 25.6907 82.648 25.936C83.1173 26.1707 83.5173 26.5067 83.848 26.944C84.1893 27.3707 84.36 27.9147 84.36 28.576C84.36 29.248 84.1893 29.8507 83.848 30.384C83.5173 30.9173 83.032 31.3387 82.392 31.648C81.7627 31.9573 81.016 32.112 80.152 32.112ZM85.4339 26.336C85.4339 25.2267 85.6632 24.24 86.1219 23.376C86.5912 22.5013 87.2525 21.824 88.1059 21.344C88.9592 20.8533 89.9405 20.608 91.0499 20.608C92.4579 20.608 93.6419 20.9867 94.6019 21.744C95.5619 22.4907 96.1805 23.5093 96.4579 24.8H93.0819C92.8792 24.3733 92.5965 24.048 92.2339 23.824C91.8819 23.6 91.4712 23.488 91.0019 23.488C90.2765 23.488 89.6952 23.7493 89.2579 24.272C88.8312 24.784 88.6179 25.472 88.6179 26.336C88.6179 27.2107 88.8312 27.9093 89.2579 28.432C89.6952 28.944 90.2765 29.2 91.0019 29.2C91.4712 29.2 91.8819 29.088 92.2339 28.864C92.5965 28.64 92.8792 28.3147 93.0819 27.888H96.4579C96.1805 29.1787 95.5619 30.2027 94.6019 30.96C93.6419 31.7067 92.4579 32.08 91.0499 32.08C89.9405 32.08 88.9592 31.84 88.1059 31.36C87.2525 30.8693 86.5912 30.192 86.1219 29.328C85.6632 28.4533 85.4339 27.456 85.4339 26.336ZM103.655 32L101.415 27.84H101.079V32H97.9429V20.72H102.887C103.794 20.72 104.562 20.88 105.191 21.2C105.82 21.5093 106.295 21.9413 106.615 22.496C106.935 23.04 107.095 23.6533 107.095 24.336C107.095 25.104 106.882 25.7813 106.455 26.368C106.039 26.944 105.426 27.3547 104.615 27.6L107.159 32H103.655ZM101.079 25.696H102.631C103.058 25.696 103.378 25.5947 103.591 25.392C103.804 25.1893 103.911 24.896 103.911 24.512C103.911 24.1493 103.799 23.8667 103.575 23.664C103.362 23.4507 103.047 23.344 102.631 23.344H101.079V25.696ZM111.657 20.72V32H108.521V20.72H111.657ZM120.643 26.208C121.304 26.3573 121.827 26.688 122.211 27.2C122.606 27.7013 122.803 28.2773 122.803 28.928C122.803 29.888 122.472 30.64 121.811 31.184C121.15 31.728 120.222 32 119.027 32H113.443V20.72H118.851C120.003 20.72 120.904 20.976 121.555 21.488C122.216 22 122.547 22.72 122.547 23.648C122.547 24.3093 122.371 24.864 122.019 25.312C121.678 25.7493 121.219 26.048 120.643 26.208ZM116.579 25.2H118.163C118.952 25.2 119.347 24.8747 119.347 24.224C119.347 23.552 118.952 23.216 118.163 23.216H116.579V25.2ZM118.403 29.472C119.192 29.472 119.587 29.1413 119.587 28.48C119.587 28.1387 119.48 27.8773 119.267 27.696C119.064 27.5147 118.771 27.424 118.387 27.424H116.579V29.472H118.403ZM127.313 23.232V25.072H130.913V27.456H127.313V29.488H131.393V32H124.177V20.72H131.393V23.232H127.313Z" fill="#FFF389"/>
<path d="M48.1051 32.112C46.7931 32.112 45.7158 31.8027 44.8731 31.184C44.0305 30.5547 43.5771 29.6587 43.5131 28.496H46.8571C46.8891 28.8907 47.0065 29.1787 47.2091 29.36C47.4118 29.5413 47.6731 29.632 47.9931 29.632C48.2811 29.632 48.5158 29.5627 48.6971 29.424C48.8891 29.2747 48.9851 29.072 48.9851 28.816C48.9851 28.4853 48.8305 28.2293 48.5211 28.048C48.2118 27.8667 47.7105 27.664 47.0171 27.44C46.2811 27.1947 45.6838 26.96 45.2251 26.736C44.7771 26.5013 44.3825 26.1653 44.0411 25.728C43.7105 25.28 43.5451 24.6987 43.5451 23.984C43.5451 23.2587 43.7265 22.64 44.0891 22.128C44.4518 21.6053 44.9531 21.2107 45.5931 20.944C46.2331 20.6773 46.9585 20.544 47.7691 20.544C49.0811 20.544 50.1265 20.8533 50.9051 21.472C51.6945 22.08 52.1158 22.9387 52.1691 24.048H48.7611C48.7505 23.7067 48.6438 23.4507 48.4411 23.28C48.2491 23.1093 47.9985 23.024 47.6891 23.024C47.4545 23.024 47.2625 23.0933 47.1131 23.232C46.9638 23.3707 46.8891 23.568 46.8891 23.824C46.8891 24.0373 46.9691 24.224 47.1291 24.384C47.2998 24.5333 47.5078 24.6667 47.7531 24.784C47.9985 24.8907 48.3611 25.0293 48.8411 25.2C49.5558 25.4453 50.1425 25.6907 50.6011 25.936C51.0705 26.1707 51.4705 26.5067 51.8011 26.944C52.1425 27.3707 52.3131 27.9147 52.3131 28.576C52.3131 29.248 52.1425 29.8507 51.8011 30.384C51.4705 30.9173 50.9851 31.3387 50.3451 31.648C49.7158 31.9573 48.9691 32.112 48.1051 32.112ZM56.843 20.72V27.264C56.843 27.872 56.9817 28.3413 57.259 28.672C57.547 29.0027 57.979 29.168 58.555 29.168C59.131 29.168 59.563 29.0027 59.851 28.672C60.1497 28.3307 60.299 27.8613 60.299 27.264V20.72H63.435V27.264C63.435 28.2987 63.2163 29.184 62.779 29.92C62.3417 30.6453 61.7443 31.1947 60.987 31.568C60.2403 31.9307 59.4083 32.112 58.491 32.112C57.5737 32.112 56.7523 31.9307 56.027 31.568C55.3123 31.1947 54.747 30.6453 54.331 29.92C53.9257 29.1947 53.723 28.3093 53.723 27.264V20.72H56.843ZM72.3616 26.208C73.023 26.3573 73.5456 26.688 73.9296 27.2C74.3243 27.7013 74.5216 28.2773 74.5216 28.928C74.5216 29.888 74.191 30.64 73.5296 31.184C72.8683 31.728 71.9403 32 70.7456 32H65.1616V20.72H70.5696C71.7216 20.72 72.623 20.976 73.2736 21.488C73.935 22 74.2656 22.72 74.2656 23.648C74.2656 24.3093 74.0896 24.864 73.7376 25.312C73.3963 25.7493 72.9376 26.048 72.3616 26.208ZM68.2976 25.2H69.8816C70.671 25.2 71.0656 24.8747 71.0656 24.224C71.0656 23.552 70.671 23.216 69.8816 23.216H68.2976V25.2ZM70.1216 29.472C70.911 29.472 71.3056 29.1413 71.3056 28.48C71.3056 28.1387 71.199 27.8773 70.9856 27.696C70.783 27.5147 70.4896 27.424 70.1056 27.424H68.2976V29.472H70.1216ZM80.152 32.112C78.84 32.112 77.7627 31.8027 76.92 31.184C76.0773 30.5547 75.624 29.6587 75.56 28.496H78.904C78.936 28.8907 79.0533 29.1787 79.256 29.36C79.4587 29.5413 79.72 29.632 80.04 29.632C80.328 29.632 80.5627 29.5627 80.744 29.424C80.936 29.2747 81.032 29.072 81.032 28.816C81.032 28.4853 80.8773 28.2293 80.568 28.048C80.2587 27.8667 79.7573 27.664 79.064 27.44C78.328 27.1947 77.7307 26.96 77.272 26.736C76.824 26.5013 76.4293 26.1653 76.088 25.728C75.7573 25.28 75.592 24.6987 75.592 23.984C75.592 23.2587 75.7733 22.64 76.136 22.128C76.4987 21.6053 77 21.2107 77.64 20.944C78.28 20.6773 79.0053 20.544 79.816 20.544C81.128 20.544 82.1733 20.8533 82.952 21.472C83.7413 22.08 84.1627 22.9387 84.216 24.048H80.808C80.7973 23.7067 80.6907 23.4507 80.488 23.28C80.296 23.1093 80.0453 23.024 79.736 23.024C79.5013 23.024 79.3093 23.0933 79.16 23.232C79.0107 23.3707 78.936 23.568 78.936 23.824C78.936 24.0373 79.016 24.224 79.176 24.384C79.3467 24.5333 79.5547 24.6667 79.8 24.784C80.0453 24.8907 80.408 25.0293 80.888 25.2C81.6027 25.4453 82.1893 25.6907 82.648 25.936C83.1173 26.1707 83.5173 26.5067 83.848 26.944C84.1893 27.3707 84.36 27.9147 84.36 28.576C84.36 29.248 84.1893 29.8507 83.848 30.384C83.5173 30.9173 83.032 31.3387 82.392 31.648C81.7627 31.9573 81.016 32.112 80.152 32.112ZM85.4339 26.336C85.4339 25.2267 85.6632 24.24 86.1219 23.376C86.5912 22.5013 87.2525 21.824 88.1059 21.344C88.9592 20.8533 89.9405 20.608 91.0499 20.608C92.4579 20.608 93.6419 20.9867 94.6019 21.744C95.5619 22.4907 96.1805 23.5093 96.4579 24.8H93.0819C92.8792 24.3733 92.5965 24.048 92.2339 23.824C91.8819 23.6 91.4712 23.488 91.0019 23.488C90.2765 23.488 89.6952 23.7493 89.2579 24.272C88.8312 24.784 88.6179 25.472 88.6179 26.336C88.6179 27.2107 88.8312 27.9093 89.2579 28.432C89.6952 28.944 90.2765 29.2 91.0019 29.2C91.4712 29.2 91.8819 29.088 92.2339 28.864C92.5965 28.64 92.8792 28.3147 93.0819 27.888H96.4579C96.1805 29.1787 95.5619 30.2027 94.6019 30.96C93.6419 31.7067 92.4579 32.08 91.0499 32.08C89.9405 32.08 88.9592 31.84 88.1059 31.36C87.2525 30.8693 86.5912 30.192 86.1219 29.328C85.6632 28.4533 85.4339 27.456 85.4339 26.336ZM103.655 32L101.415 27.84H101.079V32H97.9429V20.72H102.887C103.794 20.72 104.562 20.88 105.191 21.2C105.82 21.5093 106.295 21.9413 106.615 22.496C106.935 23.04 107.095 23.6533 107.095 24.336C107.095 25.104 106.882 25.7813 106.455 26.368C106.039 26.944 105.426 27.3547 104.615 27.6L107.159 32H103.655ZM101.079 25.696H102.631C103.058 25.696 103.378 25.5947 103.591 25.392C103.804 25.1893 103.911 24.896 103.911 24.512C103.911 24.1493 103.799 23.8667 103.575 23.664C103.362 23.4507 103.047 23.344 102.631 23.344H101.079V25.696ZM111.657 20.72V32H108.521V20.72H111.657ZM120.643 26.208C121.304 26.3573 121.827 26.688 122.211 27.2C122.606 27.7013 122.803 28.2773 122.803 28.928C122.803 29.888 122.472 30.64 121.811 31.184C121.15 31.728 120.222 32 119.027 32H113.443V20.72H118.851C120.003 20.72 120.904 20.976 121.555 21.488C122.216 22 122.547 22.72 122.547 23.648C122.547 24.3093 122.371 24.864 122.019 25.312C121.678 25.7493 121.219 26.048 120.643 26.208ZM116.579 25.2H118.163C118.952 25.2 119.347 24.8747 119.347 24.224C119.347 23.552 118.952 23.216 118.163 23.216H116.579V25.2ZM118.403 29.472C119.192 29.472 119.587 29.1413 119.587 28.48C119.587 28.1387 119.48 27.8773 119.267 27.696C119.064 27.5147 118.771 27.424 118.387 27.424H116.579V29.472H118.403ZM127.313 23.232V25.072H130.913V27.456H127.313V29.488H131.393V32H124.177V20.72H131.393V23.232H127.313Z" fill="url(#paint5_linear_43_1249)"/>
</g>
</g>
<defs>
<filter id="filter0_ddd_43_1249" x="0.218986" y="0.0609149" width="172.893" height="60.4984" filterUnits="userSpaceOnUse" color-interpolation-filters="sRGB">
<feFlood flood-opacity="0" result="BackgroundImageFix"/>
<feColorMatrix in="SourceAlpha" type="matrix" values="0 0 0 0 0 0 0 0 0 0 0 0 0 0 0 0 0 0 127 0" result="hardAlpha"/>
<feOffset dy="0.778117"/>
<feGaussianBlur stdDeviation="3.89058"/>
<feColorMatrix type="matrix" values="0 0 0 0 0 0 0 0 0 0 0 0 0 0 0 0 0 0 0.2 0"/>
<feBlend mode="normal" in2="BackgroundImageFix" result="effect1_dropShadow_43_1249"/>
<feColorMatrix in="SourceAlpha" type="matrix" values="0 0 0 0 0 0 0 0 0 0 0 0 0 0 0 0 0 0 127 0" result="hardAlpha"/>
<feOffset dy="3.11247"/>
<feGaussianBlur stdDeviation="1.94529"/>
<feColorMatrix type="matrix" values="0 0 0 0 0 0 0 0 0 0 0 0 0 0 0 0 0 0 0.12 0"/>
<feBlend mode="normal" in2="effect1_dropShadow_43_1249" result="effect2_dropShadow_43_1249"/>
<feColorMatrix in="SourceAlpha" type="matrix" values="0 0 0 0 0 0 0 0 0 0 0 0 0 0 0 0 0 0 127 0" result="hardAlpha"/>
<feOffset dy="1.55623"/>
<feGaussianBlur stdDeviation="1.55623"/>
<feColorMatrix type="matrix" values="0 0 0 0 0 0 0 0 0 0 0 0 0 0 0 0 0 0 0.14 0"/>
<feBlend mode="normal" in2="effect2_dropShadow_43_1249" result="effect3_dropShadow_43_1249"/>
<feBlend mode="normal" in="SourceGraphic" in2="effect3_dropShadow_43_1249" result="shape"/>
</filter>
<filter id="filter1_ddd_43_1249" x="0.218833" y="-3.00305" width="172.893" height="60.4989" filterUnits="userSpaceOnUse" color-interpolation-filters="sRGB">
<feFlood flood-opacity="0" result="BackgroundImageFix"/>
<feColorMatrix in="SourceAlpha" type="matrix" values="0 0 0 0 0 0 0 0 0 0 0 0 0 0 0 0 0 0 127 0" result="hardAlpha"/>
<feOffset dy="0.778117"/>
<feGaussianBlur stdDeviation="3.89058"/>
<feColorMatrix type="matrix" values="0 0 0 0 0 0 0 0 0 0 0 0 0 0 0 0 0 0 0.2 0"/>
<feBlend mode="normal" in2="BackgroundImageFix" result="effect1_dropShadow_43_1249"/>
<feColorMatrix in="SourceAlpha" type="matrix" values="0 0 0 0 0 0 0 0 0 0 0 0 0 0 0 0 0 0 127 0" result="hardAlpha"/>
<feOffset dy="3.11247"/>
<feGaussianBlur stdDeviation="1.94529"/>
<feColorMatrix type="matrix" values="0 0 0 0 0 0 0 0 0 0 0 0 0 0 0 0 0 0 0.12 0"/>
<feBlend mode="normal" in2="effect1_dropShadow_43_1249" result="effect2_dropShadow_43_1249"/>
<feColorMatrix in="SourceAlpha" type="matrix" values="0 0 0 0 0 0 0 0 0 0 0 0 0 0 0 0 0 0 127 0" result="hardAlpha"/>
<feOffset dy="1.55623"/>
<feGaussianBlur stdDeviation="1.55623"/>
<feColorMatrix type="matrix" values="0 0 0 0 0 0 0 0 0 0 0 0 0 0 0 0 0 0 0.14 0"/>
<feBlend mode="normal" in2="effect2_dropShadow_43_1249" result="effect3_dropShadow_43_1249"/>
<feBlend mode="normal" in="SourceGraphic" in2="effect3_dropShadow_43_1249" result="shape"/>
</filter>
<filter id="filter2_dddd_43_1249" x="41.9569" y="18.2096" width="92.5488" height="16.2371" filterUnits="userSpaceOnUse" color-interpolation-filters="sRGB">
<feFlood flood-opacity="0" result="BackgroundImageFix"/>
<feColorMatrix in="SourceAlpha" type="matrix" values="0 0 0 0 0 0 0 0 0 0 0 0 0 0 0 0 0 0 127 0" result="hardAlpha"/>
<feOffset dy="0.778117"/>
<feGaussianBlur stdDeviation="0.778117"/>
<feColorMatrix type="matrix" values="0 0 0 0 0 0 0 0 0 0 0 0 0 0 0 0 0 0 0.2 0"/>
<feBlend mode="overlay" in2="BackgroundImageFix" result="effect1_dropShadow_43_1249"/>
<feColorMatrix in="SourceAlpha" type="matrix" values="0 0 0 0 0 0 0 0 0 0 0 0 0 0 0 0 0 0 127 0" result="hardAlpha"/>
<feOffset dy="0.778117"/>
<feGaussianBlur stdDeviation="0.389058"/>
<feColorMatrix type="matrix" values="0 0 0 0 0 0 0 0 0 0 0 0 0 0 0 0 0 0 0.22 0"/>
<feBlend mode="overlay" in2="effect1_dropShadow_43_1249" result="effect2_dropShadow_43_1249"/>
<feColorMatrix in="SourceAlpha" type="matrix" values="0 0 0 0 0 0 0 0 0 0 0 0 0 0 0 0 0 0 127 0" result="hardAlpha"/>
<feOffset dy="0.778117"/>
<feGaussianBlur stdDeviation="0.778117"/>
<feColorMatrix type="matrix" values="0 0 0 0 0 0 0 0 0 0 0 0 0 0 0 0 0 0 0.24 0"/>
<feBlend mode="overlay" in2="effect2_dropShadow_43_1249" result="effect3_dropShadow_43_1249"/>
<feColorMatrix in="SourceAlpha" type="matrix" values="0 0 0 0 0 0 0 0 0 0 0 0 0 0 0 0 0 0 127 0" result="hardAlpha"/>
<feOffset dx="0.778117"/>
<feGaussianBlur stdDeviation="1.16717"/>
<feColorMatrix type="matrix" values="0 0 0 0 0 0 0 0 0 0 0 0 0 0 0 0 0 0 0.35 0"/>
<feBlend mode="normal" in2="effect3_dropShadow_43_1249" result="effect4_dropShadow_43_1249"/>
<feBlend mode="normal" in="SourceGraphic" in2="effect4_dropShadow_43_1249" result="shape"/>
</filter>
<linearGradient id="paint0_linear_43_1249" x1="86.6655" y1="4" x2="86.6655" y2="48.9362" gradientUnits="userSpaceOnUse">
<stop stop-color="white"/>
<stop offset="1" stop-color="white" stop-opacity="0"/>
</linearGradient>
<radialGradient id="paint1_radial_43_1249" cx="0" cy="0" r="1" gradientUnits="userSpaceOnUse" gradientTransform="translate(86.6651 45.0414) rotate(90) scale(18.2741 73.6084)">
<stop stop-color="white"/>
<stop offset="1" stop-color="white" stop-opacity="0"/>
</radialGradient>
<radialGradient id="paint2_radial_43_1249" cx="0" cy="0" r="1" gradientUnits="userSpaceOnUse" gradientTransform="translate(86.7084 7.06394) rotate(90) scale(7.14894 73.2487)">
<stop stop-color="white"/>
<stop offset="1" stop-color="white" stop-opacity="0"/>
</radialGradient>
<linearGradient id="paint3_linear_43_1249" x1="154.637" y1="4" x2="16.7517" y2="4" gradientUnits="userSpaceOnUse">
<stop stop-color="white" stop-opacity="0"/>
<stop offset="0.492063" stop-color="white"/>
<stop offset="1" stop-color="white" stop-opacity="0"/>
</linearGradient>
<linearGradient id="paint4_linear_43_1249" x1="154.637" y1="47.915" x2="16.7517" y2="47.915" gradientUnits="userSpaceOnUse">
<stop stop-color="white" stop-opacity="0"/>
<stop offset="0.492063" stop-color="white"/>
<stop offset="1" stop-color="white" stop-opacity="0"/>
</linearGradient>
<linearGradient id="paint5_linear_43_1249" x1="87.5" y1="17" x2="87.5" y2="35" gradientUnits="userSpaceOnUse">
<stop stop-color="white"/>
<stop offset="1" stop-color="white" stop-opacity="0"/>
</linearGradient>
<clipPath id="clip0_43_1249">
<rect x="8" y="4" width="157.331" height="44.9362" rx="7.78117" fill="white"/>
</clipPath>
</defs>
</svg>
